<?xml version="1.0" encoding="utf-8"?>
<svg viewBox="0 0 500 500" xmlns="http://www.w3.org/2000/svg" xmlns:bx="https://boxy-svg.com">
  <defs>
    <bx:grid x="0" y="0" width="25" height="25"/>
    <mask id="mask-0">
      <path style="fill: rgb(255, 255, 255);" d="M 175 0 L 325 0 C 425 0 255 200 255 250 C 255 300 425 500 325 500 L 175 500 C 75 500 245 300 245 250 C 245 200 75 0 175 0 Z">
        <title>SandMask</title>
      </path>
    </mask>
  </defs>
  <path style="fill: rgb(216, 216, 216); fill-opacity: 0.25;" d="M 175 0 L 325 0 C 425 0 255 200 255 250 C 255 300 425 500 325 500 L 175 500 C 75 500 245 300 245 250 C 245 200 75 0 175 0 Z">
    <title>BackGlass</title>
  </path>
  <path style="fill: rgb(255, 187, 0); mask: url(#mask-0);" d="M 175 500 C 74.558 500 240 400 250 400 C 260 400 425 500 325 500 L 175 500 Z M 350 100 C 325 125 255 260 250 260 C 245 260 175 125 150 100 C 225 125 275 125 350 100 Z">
    <title>Sand</title>
  </path>
  <path style="fill: rgb(216, 216, 216); fill-opacity: 0.25;" d="M 175 0 L 325 0 C 425 0 255 200 255 250 C 255 300 425 500 325 500 L 175 500 C 75 500 245 300 245 250 C 245 200 75 0 175 0 Z">
    <title>FrontGlass</title>
  </path>
  <path style="fill: rgb(255, 255, 255); fill-opacity: 0.5;" d="M 200 0 C 149.993 49.967 250 200 250 250 C 250 300 150 450 200 500 L 250 500 C 200 450 250 300 250 250 C 250 200 200.181 49.154 250 0 L 200 0 Z">
    <title>Light</title>
  </path>
</svg>